Coordinates
version=1
nRows=5
nColumns=63
inDegrees=yes

Units are S.I. units (second, meters, Newtons, ...)
If the header above contains a line with 'inDegrees', this indicates whether rotational values are in degrees (yes) or radians (no).

endheader
time	pelvis_tilt	pelvis_list	pelvis_rotation	pelvis_tx	pelvis_ty	pelvis_tz	hip_flexion_r	hip_adduction_r	hip_rotation_r	knee_angle_r	knee_angle_r_beta	ankle_angle_r	subtalar_angle_r	mtp_angle_r	hip_flexion_l	hip_adduction_l	hip_rotation_l	knee_angle_l	knee_angle_l_beta	ankle_angle_l	subtalar_angle_l	mtp_angle_l	L5_S1_Flex_Ext	L5_S1_Lat_Bending	L5_S1_axial_rotation	L4_L5_Flex_Ext	L4_L5_Lat_Bending	L4_L5_axial_rotation	L3_L4_Flex_Ext	L3_L4_Lat_Bending	L3_L4_axial_rotation	L2_L3_Flex_Ext	L2_L3_Lat_Bending	L2_L3_axial_rotation	L1_L2_Flex_Ext	L1_L2_Lat_Bending	L1_L2_axial_rotation	L1_T12_Flex_Ext	L1_T12_Lat_Bending	L1_T12_axial_rotation	Abs_r3	Abs_r2	Abs_r1	Abs_t1	Abs_t2	neck_flexion	neck_bending	neck_rotation	arm_flex_r	arm_add_r	arm_rot_r	elbow_flex_r	pro_sup_r	wrist_flex_r	wrist_dev_r	arm_flex_l	arm_add_l	arm_rot_l	elbow_flex_l	pro_sup_l	wrist_flex_l	wrist_dev_l
      0.76271186	      1.70742699	     -1.01566091	    109.39316488	      0.35650633	      0.45593420	      0.95841128	      3.67974067	     -1.77377725	    -13.86843642	      8.28832033	      0.14465848	     22.07515854	     17.39124065	      0.00000000	      5.28234440	      1.75198176	     -6.34222353	      8.29069463	      0.14469992	     21.54272781	      3.78224440	      0.00000000	      0.13071275	     -0.10142111	     -0.40666174	      0.24274665	     -0.13489008	     -0.43207810	      0.21474798	     -0.24659528	     -0.43207810	      0.14939161	     -0.24659528	     -0.35582902	      0.12137986	     -0.20681793	     -0.33041266	      0.07468927	     -0.15710130	     -0.30499630	      0.93366812	     -1.14729587	     -2.26173059	      0.00000000	      0.00000000	     20.82857577	     -0.43966178	      3.35702617	      7.37858300	    -12.92851636	    105.13451538	      6.56740610	     12.04278313	      1.79957938	     -3.94609650	      7.20913974	    -19.03525116	     71.11164975	     20.07651879	     86.26670466	    -21.18326743	      0.45081735
      0.77966102	      1.59120247	     -0.96080012	    109.31326241	      0.35645130	      0.45561920	      0.95828770	      3.60562934	     -1.87753322	    -13.72689240	      8.29005991	      0.14468884	     22.31933569	     17.42144948	      0.00000000	      5.20942408	      1.85929456	     -6.45494638	      8.32353169	      0.14527303	     21.56627888	      3.60468954	      0.00000000	      0.13029848	     -0.09467028	     -0.47855940	      0.24197732	     -0.12591147	     -0.50846936	      0.21406738	     -0.23018131	     -0.50846936	      0.14891814	     -0.23018131	     -0.41873948	      0.12099517	     -0.19305163	     -0.38882951	      0.07445255	     -0.14664426	     -0.35891955	      0.93070905	     -1.07092909	     -2.66160382	      0.00000000	      0.00000000	     20.63454444	     -0.97544862	      3.69535828	      7.20422204	    -12.81862256	    105.93591707	      6.41910994	     12.55575504	      1.69689762	     -3.33715617	      6.74272069	    -18.38594437	     71.40491067	     18.94133169	     86.27542904	    -21.15316430	      0.67759854
      0.79661017	      1.99868080	     -0.96916847	    109.18279872	      0.35510819	      0.45558649	      0.95805932	      3.70391214	     -1.54325978	    -13.70875736	      8.19606158	      0.14304826	     21.98050608	     17.40482639	      0.00000000	      5.19001115	      1.66928531	     -4.98873393	      8.00500046	      0.13971361	     21.08582814	      1.39282223	      0.00000000	      0.16298320	      0.00476822	     -0.62373778	      0.30267610	      0.00634174	     -0.66272139	      0.26776510	      0.01159346	     -0.66272139	      0.18627350	      0.01159346	     -0.54577056	      0.15134620	      0.00972336	     -0.50678695	      0.09312860	      0.00738598	     -0.46780334	      1.16417268	      0.05393911	     -3.46904242	      0.00000000	      0.00000000	     20.48566643	     -1.30050652	      6.70169431	      7.63276669	    -12.94600464	    116.19810589	      5.42407481	     10.18658518	      2.66448565	     -2.54075909	      7.99969536	    -11.62678249	    155.21912701	      0.97610479	     14.06126481	    -14.48630552	     -7.05999701
      0.81355932	      1.82129777	     -0.94065904	    109.00474318	      0.35549029	      0.45511430	      0.95776201	      3.66718630	     -1.70483675	    -13.65333432	      8.29976312	      0.14485819	     22.12714445	     17.43003520	      0.00000000	      5.12607472	      1.80539741	     -5.10904467	      8.04713085	      0.14044893	     21.14549891	      1.13983049	      0.00000000	      0.15749815	      0.00112845	     -0.65320609	      0.29248981	      0.00150084	     -0.69403147	      0.25875371	      0.00274372	     -0.69403147	      0.18000463	      0.00274372	     -0.57155533	      0.14625278	      0.00230114	     -0.53072995	      0.08999444	      0.00174798	     -0.48990457	      1.12499352	      0.01276530	     -3.63293631	      0.00000000	      0.00000000	     20.36181111	     -1.38597055	      7.99500338	      7.67766354	    -12.83848145	    117.78969849	      5.49752090	     11.74253116	      2.84669419	     -1.05907829	      7.51005810	    -11.41535727	    154.45373654	      1.01202547	     13.61251040	    -15.24946417	     -7.30910760
      0.83050847	      1.62530250	     -0.98527752	    108.88671750	      0.35584212	      0.45454832	      0.95742312	      3.67830860	     -1.91498399	    -13.71422095	      8.41398888	      0.14685181	     22.27592813	     17.47197213	      0.00000000	      5.07420889	      2.00617023	     -5.01408320	      7.98325455	      0.13933408	     21.17509809	      0.78342801	      0.00000000	      0.15499993	     -0.01276177	     -0.69896166	      0.28785036	     -0.01697315	     -0.74264676	      0.25464938	     -0.03102896	     -0.74264676	      0.17714941	     -0.03102896	     -0.61159145	      0.14393293	     -0.02602380	     -0.56790635	      0.08856696	     -0.01976798	     -0.52422124	      1.10714897	     -0.14436367	     -3.88741505	      0.00000000	      0.00000000	     20.31779058	     -0.54936118	     10.04020299	      7.76128688	    -12.68996606	    119.28526940	      5.53951476	     13.28842161	      3.32283959	     -0.18551661	      6.94632975	    -11.29764456	    152.76004039	      1.10003375	     12.50823743	    -16.38478017	     -8.46667564
